<?xml version="1.0" encoding="UTF-8"?>
<svg id="Layer_1" data-name="Layer 1" xmlns="http://www.w3.org/2000/svg" viewBox="0 0 1806.23 921.95">
  <defs>
    <style>
      .cls-1 {
        fill: #e44820;
      }

      .cls-1, .cls-2, .cls-3, .cls-4, .cls-5, .cls-6, .cls-7 {
        stroke-width: 0px;
      }

      .cls-2 {
        fill: #50ca53;
      }

      .cls-3 {
        fill: #073642;
      }

      .cls-4 {
        fill: #f44d22;
      }

      .cls-5 {
        fill: #cc3c1f;
      }

      .cls-6 {
        fill: #f98122;
      }

      .cls-7 {
        fill: #d3712f;
      }
    </style>
  </defs>
  <path class="cls-2" d="M750.74,118.51c13.43,4.78,30.75,17.07,46.8,23.4-6.05,3.2-11.97,6.72-17.93,10.09l-29.21,16.96c.45-16.82.56-33.63.34-50.45Z"/>
  <path class="cls-6" d="M14.39,178.14l.74-2.16c4.74-4.5,106.25-62.66,114.43-65.46.37-.13.75-.21,1.12-.31l.29-.44c1.63,3.56.97,8.14.95,12.04-3.37,3.36-90.7,50.03-100.14,54.12-3.57,1.55-7.73,2.91-11.65,2.83-1.94-.04-3.83-.33-5.74-.61Z"/>
  <path class="cls-6" d="M417.42,87.31l-.04,11.77c-27.32,11.67-107.18,67.17-126.97,69.81-.69-2.79-1.02-5.6-1.38-8.45,7.41-6.24,30.15-16.95,40.29-22.7,29.44-16.68,58.2-34.59,88.09-50.44Z"/>
  <path class="cls-6" d="M565.65,149.66c34.86-19.38,69.55-39.07,104.06-59.07,17.73-10.25,38.43-24.6,57.37-31.84,1.25,2.47.79,5.64.8,8.39l-123.64,72.54c-12.3,7.1-25.35,17.66-38.53,22.65l-.05-12.66Z"/>
  <path class="cls-6" d="M439.01,105.02c29.27,12.3,57.77,27.78,86.73,40.96-10,6.55-20.69,12.21-31.08,18.12-18.85,10.53-37.18,22.22-55.81,33.16.29-30.74.34-61.49.16-92.23Z"/>
  <path class="cls-2" d="M152.94,118.98c11.37,3.53,22.52,8.35,33.74,12.39l69.1,24.33c-12.34,7.67-25.02,14.78-37.64,21.99-22.06,12.34-43.5,25.72-65.55,38.05.31-32.25.42-64.51.34-96.76Z"/>
  <path class="cls-6" d="M492.76,11.96c12.71-1.35,24.41.02,35.47,6.9.73.45,1.44.92,2.14,1.41.7.49,1.39.99,2.07,1.51.68.52,1.34,1.06,1.99,1.62.65.55,1.29,1.12,1.91,1.71.62.59,1.23,1.19,1.82,1.8.59.62,1.17,1.25,1.73,1.89.56.65,1.11,1.3,1.63,1.98.53.67,1.04,1.36,1.54,2.05.49.7.97,1.41,1.43,2.13.46.72.9,1.45,1.32,2.2.42.74.83,1.5,1.22,2.26.39.76.75,1.54,1.1,2.32s.68,1.57.98,2.37c.31.8.6,1.6.87,2.41.27.81.52,1.63.74,2.45.23.82.43,1.65.62,2.49,3.11,13.68.48,28.99-7.44,40.62-7.8,11.44-19.27,17.53-32.55,20.16-11.02.48-20.97-.24-31.15-5.04-.77-.36-1.53-.73-2.28-1.13-.75-.4-1.49-.81-2.22-1.24-.73-.43-1.45-.88-2.16-1.35-.71-.47-1.4-.95-2.09-1.46s-1.35-1.02-2.01-1.56c-.66-.54-1.3-1.09-1.93-1.66-.63-.57-1.24-1.15-1.84-1.75-.6-.6-1.19-1.21-1.75-1.84-.57-.63-1.12-1.27-1.66-1.93-.54-.66-1.06-1.32-1.56-2.01-.5-.68-.99-1.38-1.46-2.08-.47-.71-.92-1.43-1.35-2.15-.43-.73-.85-1.47-1.24-2.22-.4-.75-.77-1.51-1.13-2.28-.36-.77-.7-1.55-1.02-2.33-.32-.79-.62-1.58-.9-2.38-4.38-12.54-4.06-27.15,2.07-39.06,7.83-15.23,21.46-22.14,37.09-26.83Z"/>
  <path class="cls-6" d="M217.26,16.36c10.56-.9,22.13,2.43,30.94,8.24.75.5,1.48,1.02,2.2,1.55.72.53,1.43,1.09,2.12,1.66.69.57,1.37,1.16,2.03,1.76.66.6,1.31,1.22,1.94,1.86.63.64,1.25,1.29,1.84,1.96.6.67,1.18,1.35,1.75,2.04.56.7,1.11,1.41,1.64,2.13.53.72,1.04,1.46,1.53,2.21.49.75.97,1.51,1.42,2.28.46.77.89,1.56,1.31,2.35.42.79.81,1.6,1.19,2.41.38.81.73,1.64,1.06,2.47.34.83.65,1.67.94,2.52.29.85.57,1.7.82,2.56.25.86.48,1.73.69,2.6.21.87.39,1.75.56,2.63,2.39,13.48-.66,28.06-8.55,39.28-8.9,12.65-22.15,19.33-36.97,22.14-12.84.1-24.39-2.51-35.06-10.05-.72-.51-1.42-1.04-2.11-1.59-.69-.55-1.37-1.11-2.03-1.69-.66-.58-1.31-1.18-1.94-1.79-.63-.61-1.25-1.24-1.85-1.89-.6-.64-1.18-1.3-1.75-1.97-.57-.67-1.12-1.36-1.65-2.06-.53-.7-1.05-1.41-1.55-2.14-.5-.73-.98-1.46-1.44-2.21-.46-.75-.9-1.51-1.33-2.28-.42-.77-.83-1.55-1.21-2.35-.39-.79-.75-1.59-1.1-2.4-.34-.81-.67-1.63-.97-2.45-.3-.83-.59-1.66-.85-2.5-.26-.84-.51-1.69-.73-2.54-.22-.85-.42-1.71-.6-2.57-.18-.86-.34-1.73-.47-2.6-.14-.83-.26-1.67-.36-2.51-.1-.84-.18-1.68-.23-2.53-.06-.84-.09-1.69-.11-2.54-.02-.85,0-1.69.02-2.54.03-.85.08-1.69.15-2.53.07-.84.16-1.69.27-2.52.11-.84.25-1.67.4-2.51.15-.83.33-1.66.53-2.48.2-.82.41-1.64.65-2.46.24-.81.5-1.62.77-2.42.28-.8.57-1.59.89-2.38.32-.79.65-1.56,1.01-2.33.36-.77.73-1.53,1.13-2.28.39-.75.81-1.49,1.24-2.22.43-.73.88-1.45,1.35-2.15.47-.71.95-1.4,1.45-2.08,9.6-13,23.49-19.05,39.03-21.12Z"/>
  <path class="cls-2" d="M794.35,11.95c11.81-.83,22.55,1.63,32.72,7.8,11.99,7.28,20.99,18.61,24.19,32.37,3.28,14.12.91,29.9-7.28,41.97-8.76,12.9-21.64,19.5-36.51,22.58-12.73.69-23.36-.59-34.53-7.46-12.21-7.51-21.57-19.8-24.49-33.93-2.74-13.29-.54-27.98,6.99-39.37,9.17-13.86,23.21-20.61,38.9-23.95Z"/>
  <path class="cls-6" d="M131.94,550.38c19.65-10.7,38.76-22.88,58.12-34.15l157.52-91.69c22.89-13.33,45.49-27.56,68.67-40.33,1.43,3.15,1.08,6.14,1.1,9.55-16.84,9.04-32.62,20.12-49.15,29.76l-79.78,45.9c-31.3,18.43-62.02,37.3-93.81,54.92-20.35,11.28-40.55,26-62.58,33.57l-.08,64.35c0,12,.67,24.49-.48,36.44-8.13.7-100.55-34.21-114.18-39.24,6.41-10.45,98.47-58.95,114.65-69.08Z"/>
  <path class="cls-6" d="M417.96,535.32c68.11-41.3,137.87-80.22,207.04-119.72,34.42-19.66,68.27-40.35,102.75-59.87l1.59.6c-.59,4.52-.9,8.96-1.05,13.51-62.19,33.16-122.99,69.19-184.47,103.62l-85.08,48.75c-13.73,7.98-28.6,15.19-41.4,24.55-.15,36.01,1.57,73.01-.64,108.92-8.04.67-113.47-35.5-121.59-40.71-1.95-1.25-1.53-1.85-2.01-3.99,27.34-19.42,57.95-36.29,86.95-53.11,12.23-7.09,26.95-13.74,37.91-22.56Z"/>
  <path class="cls-7" d="M14.39,178.14c1.91.28,3.81.57,5.74.61,3.92.08,8.08-1.28,11.65-2.83,9.44-4.09,96.76-50.76,100.14-54.12l.03,105.4c-38.45,23.26-77.36,46.39-116.77,67.99l-.1-77.41c0-12.58,1.43-27.34-.69-39.64Z"/>
  <path class="cls-2" d="M860.85,276.2l1.07.24c2.58,6.15.67,100.26.66,115.26-36.77,20-72.62,41.88-108.61,63.25l-1.56-.66c-.83-12.34-.09-25.12-.14-37.52l-.33-77.23c36.07-21.38,73.96-40.16,108.91-63.35Z"/>
  <path class="cls-6" d="M1362.69,621.07c1.49-2.05,2.64-2.97,4.95-4.03,20.79-9.43,42.65-17.13,63.69-26.12,10-4.27,23.62-12.96,33.83-15.16,12.35-2.66,47.54-.55,61.89-.56l69.22-.06c12.08,0,24.49-.59,36.52.19,3.14.2,5.05,1.06,7.71,2.68l-115.62,61.37c-15.34,8.01-30.71,16.69-46.41,23.94l-115.79-42.25Z"/>
  <path class="cls-6" d="M1453.13,697.75l62.04.28-.08,147.22c-.01,23.47,1.96,48.34-.35,71.63-20.38-.18-40.75-.16-61.13.06-.45-73.01-1.22-146.19-.49-219.19Z"/>
  <path class="cls-2" d="M862.46,127.29c2.44,9.93.69,24.11.68,34.63-.31,29.73-.35,59.46-.13,89.2-36.19,22.74-73.72,43.65-110.8,64.91,0-41.69,1.14-83.94-.87-125.56,37.62-19.93,74.24-41.93,111.12-63.18Z"/>
  <path class="cls-2" d="M262.95,174.48l1.59.17c2.94,5,1.46,106.64,1.5,123.28-36.36,23.09-74.78,43.29-111.8,65.31l-1.45-1.29-.38-123.98c36.78-21.25,74.22-41.48,110.55-63.49Z"/>
  <path class="cls-7" d="M289.04,160.45c.36,2.85.68,5.66,1.38,8.45,19.79-2.65,99.65-58.15,126.97-69.81-.33,36.94-.4,73.88-.2,110.82-30.79,19.48-63.34,36.5-94.62,55.24-11.34,6.79-23.33,13.35-33.95,21.18l.09-81.78c-.01-14.55-.96-29.66.33-44.11Z"/>
  <path class="cls-2" d="M263.72,322.25l1.07.15c2.27,3.81.91,111.64,1.04,125.45-15.18,11.01-32.53,19.8-48.76,29.22-21.1,12.44-42.12,25.02-63.05,37.74-.89,0-.26.07-1.6-1.04l-.22-126.47c37.53-20.93,74.26-43.59,111.52-65.04Z"/>
  <path class="cls-7" d="M14.75,319.4c3.03-3.43,103.72-61.8,116.46-69.03,2.13,13.07.66,28.17.67,41.52l.14,84.64c-36.72,22.39-78.04,49.35-116.82,67.3l-.1-79.82c-.02-14.77.61-29.87-.36-44.6Z"/>
  <path class="cls-6" d="M14.75,319.4c3.03-3.43,103.72-61.8,116.46-69.03-.4,3.85-.73,7.62-.8,11.5-20.9,11.55-88.67,55.33-105.14,59.23-3.07.73-7.51-.89-10.53-1.69Z"/>
  <path class="cls-7" d="M287.39,309.16c12.57-7.38,126.27-74.71,128.32-74.97.57-.07,1.14.17,1.72.26,1,15.72.35,31.76.31,47.52l-.3,78.74c-23.52,14.66-47.92,28-71.91,41.86-19.15,11.06-38.16,22.98-57.7,33.27.39-42.15.82-84.55-.44-126.68Z"/>
  <path class="cls-6" d="M287.39,309.16c12.57-7.38,126.27-74.71,128.32-74.97.57-.07,1.14.17,1.72.26-.49,3.1-.76,5.86-.63,9-2.1,3.1-104.55,62.14-116.3,68.15-3.7,1.89-7.28,3.42-11.38,4.24l-1.73-6.68Z"/>
  <path class="cls-7" d="M131.12,399.02c2.48,13.58.64,29.84.62,43.8-.06,35.74-1.11,71.84.21,107.55-16.17,10.14-108.23,58.63-114.65,69.08l-.93-.42c-.4-.63-1.05-1.16-1.2-1.9-1.58-7.9-.03-24.38-.04-32.96-.06-36.25,1.21-73.05-.6-109.2.05-1.87.13-3.56.52-5.4.4-1.94.89-2.02,2.55-3.14,12.09-8.17,25.86-14.88,38.56-22.18,25.32-14.53,50.32-29.61,74.97-45.24Z"/>
  <path class="cls-6" d="M14.52,474.98c.05-1.87.13-3.56.52-5.4.4-1.94.89-2.02,2.55-3.14,12.09-8.17,25.86-14.88,38.56-22.18,25.32-14.53,50.32-29.61,74.97-45.24-.35,4.13-.67,8.22-.76,12.36-22.11,12.53-96.27,62.53-115.84,63.6Z"/>
  <path class="cls-7" d="M565.7,162.32c13.18-4.98,26.23-15.54,38.53-22.65l123.64-72.54-.06,112.66c-32.64,20.81-66.91,39.6-100.39,59.06-19.85,11.53-40.64,25.88-61.65,34.83l-.07-111.36Z"/>
  <path class="cls-6" d="M1068.19,697.47c23.64-.5,47.34-.28,70.99-.4-27.36,36.87-57.7,71.74-84.22,109.2,15.15,19.94,32.5,38.88,48.48,58.25,14.38,17.05,28.18,34.71,42.24,52.03l-77.24.2c-9.86-9.78-18.38-21.15-27.23-31.86-15.14-18.59-30.65-36.87-46.51-54.85-1.05,28.94-.31,58.14-.33,87.12l-63.04-.09-.3-219.82c20.99-.41,42.06-.13,63.06-.18.16,31.96.14,63.92-.06,95.88,23.36-32.67,48.96-64.21,74.17-95.48Z"/>
  <path class="cls-7" d="M728.28,369.84c.15-4.56.46-8.99,1.05-13.51,1.95,38.62.15,77.77.62,116.48-22.85,15.3-47.75,28.25-71.49,42.18l-161.6,93.5-49.85,28.73c-10.12,5.85-21.03,11.38-30.33,18.48,2.21-35.91.49-72.91.64-108.92,12.8-9.36,27.68-16.57,41.4-24.55l85.08-48.75c61.48-34.43,122.28-70.46,184.47-103.62Z"/>
  <path class="cls-7" d="M132.03,557.91c22.03-7.57,42.24-22.3,62.58-33.57,31.79-17.61,62.51-36.49,93.81-54.92l79.78-45.9c16.53-9.64,32.31-20.71,49.15-29.76,0,46.98-1.67,94.66.6,141.56-10.96,8.82-25.68,15.47-37.91,22.56-29,16.82-59.61,33.69-86.95,53.11.23-13.66.18-27.31-.15-40.97l-.58-1.17c-11.12,3.72-22.36,11.46-32.59,17.26l-56.72,32.23-46.96,26.37c-8.13,4.55-16.96,8.75-24.61,13.99,1.15-11.95.48-24.44.48-36.44l.08-64.35Z"/>
  <path class="cls-6" d="M292.35,568.85c1.92-6.93,10.83-11.3,16.76-14.64,11.95-6.74,24.66-12.49,36.36-19.6,3.01-1.83,8.26-4.39,11.79-4.33-14.49,8.21-51.94,36.55-64.33,39.75l-.58-1.17Z"/>
  <path class="cls-6" d="M758.08,696.94c13.31-.52,26.91-.4,40.01,2.28,22.94,4.69,45.59,17.71,58.63,37.52.77,1.18,1.51,2.38,2.22,3.6.71,1.22,1.39,2.46,2.04,3.71.65,1.25,1.27,2.52,1.86,3.8.59,1.28,1.14,2.58,1.67,3.89.52,1.31,1.02,2.63,1.47,3.97.46,1.33.88,2.68,1.28,4.03.39,1.36.75,2.72,1.08,4.09.33,1.37.62,2.75.88,4.14.26,1.39.48,2.78.68,4.18.19,1.4.35,2.8.47,4.2.12,1.41.21,2.81.26,4.22s.07,2.82.06,4.23-.07,2.82-.15,4.23c-.08,1.41-.2,2.81-.36,4.21-.15,1.4-.34,2.8-.56,4.2-.22,1.39-.48,2.78-.76,4.16-5.49,25.22-20.28,40.18-41.3,53.71,13.93,21.36,31.08,41.43,46.55,61.79l-69.7-.06-14.8-20.14c-8.22-10.96-16.75-21.66-25.6-32.11-11.41-.22-22.85-.14-34.27-.21l-.05,51.91c-20.55.23-41.14-.05-61.69-.08l-.29-219.16,90.4-.31Z"/>
  <path class="cls-3" d="M729.15,753.18c19.09-.13,52.69-4.59,68.24,7.81,6.33,5.04,10.16,13.04,10.6,21.09.48,8.77-3.05,16.22-8.67,22.69-16.03,12.57-50.36,8.23-69.98,8.07-.2-19.89-.26-39.77-.19-59.66Z"/>
  <path class="cls-6" d="M1186.38,696.87c40.17-.66,80.85-1.05,121.01-.13,21.76.5,45.7,5.26,61.05,22.08,10.16,11.13,14.27,26.72,13.7,41.57-.66,17.13-7.66,30.7-20.1,42.23,13.83,10.01,24.06,20.64,28.6,37.76,4.59,17.32,1.02,33.38-7.75,48.52-1.67,2.1-3.44,4.12-5.31,6.04-9.9,10.1-22.51,15.95-36.16,19.12-20.62,4.8-43.02,3.12-64.06,3.04l-91.06-.57-.14-150.42c-.04-21.97-2.54-47.82.22-69.24Z"/>
  <path class="cls-3" d="M1248.35,829.24c18.26-.08,53.99-3.5,69.54,3.92,3.53,1.69,7.15,4.18,7.98,8.3,1.07,5.34-1.91,9.9-5.06,13.84-13.72,8.57-54.75,5.12-72.46,5.02v-31.09Z"/>
  <path class="cls-3" d="M1248.34,749.97c16.2.07,54.45-3.6,67.23,4.61,2.93,1.88,5.13,4.45,5.76,7.98.99,5.62-1.77,10.58-4.84,15.01-13.61,9.47-51.38,5.7-68.13,5.68v-33.28Z"/>
  <path class="cls-6" d="M1588.02,697.45c31.63-.11,63.65-1.2,95.24.12,35.38,1.47,73.13,13.81,97.54,40.56,18.33,20.1,26.67,47.77,25.29,74.74-1.42,27.7-11.81,51.8-32.36,70.53-36.38,31.92-80.06,33.35-125.96,33.28l-59.78-.15.04-219.08Z"/>
  <path class="cls-3" d="M1651.2,754.23c25.81-.79,55.65-3.25,76,16.1,10.09,9.6,13.86,22.88,13.89,36.48.04,15.05-5.23,26.07-15.61,36.55-22.56,17.13-46.97,15.9-73.93,15.66l-.35-104.79Z"/>
  <path class="cls-6" d="M473.63,693.56c.76-.11,1.52-.21,2.29-.26,32.59-2.18,63.79,5.77,89.05,27.1,22.78,19.23,37.52,45.73,39.93,75.61,2.56,31.77-5.73,61.13-26.51,85.54-1.2,1.4-2.43,2.77-3.69,4.11-1.26,1.34-2.56,2.65-3.88,3.93-1.33,1.28-2.68,2.53-4.07,3.74-1.39,1.21-2.8,2.39-4.24,3.54-1.44,1.15-2.91,2.26-4.41,3.33-1.5,1.08-3.02,2.11-4.56,3.12-1.55,1-3.12,1.97-4.71,2.89-1.59.93-3.21,1.82-4.84,2.67-1.63.85-3.29,1.66-4.96,2.43-1.67.77-3.37,1.5-5.07,2.19-1.71.69-3.43,1.34-5.17,1.94-1.74.61-3.49,1.17-5.26,1.69-1.77.52-3.55,1-5.34,1.44-1.79.44-3.59.83-5.4,1.18-1.81.35-3.63.66-5.45.92-1.82.26-3.65.48-5.49.66-32.13,2.93-64.14-4.41-90.06-24.21-1.46-1.1-2.89-2.24-4.3-3.41s-2.78-2.38-4.13-3.62c-1.34-1.24-2.66-2.51-3.94-3.82-1.28-1.3-2.53-2.64-3.75-4.01-1.22-1.37-2.4-2.76-3.55-4.19-1.15-1.42-2.26-2.88-3.34-4.36-1.08-1.48-2.12-2.98-3.12-4.51-1-1.53-1.97-3.08-2.89-4.66-.93-1.58-1.81-3.18-2.66-4.8-.85-1.62-1.65-3.26-2.42-4.92-.77-1.66-1.49-3.34-2.17-5.04s-1.33-3.41-1.92-5.14c-.6-1.73-1.16-3.47-1.67-5.23-.51-1.76-.98-3.52-1.41-5.3-.43-1.78-.81-3.57-1.15-5.37-.34-1.8-.63-3.6-.88-5.41-3.99-29.75,3.31-59.24,21.75-82.99,20.84-26.84,49.85-42.57,83.4-46.77Z"/>
  <path class="cls-3" d="M483.22,754.61c12.38-.81,25.67,3.61,35.51,11.02.69.52,1.37,1.05,2.04,1.61.67.55,1.32,1.12,1.95,1.71.64.58,1.26,1.18,1.87,1.8.61.62,1.2,1.25,1.77,1.89.58.65,1.13,1.31,1.68,1.98.54.67,1.07,1.36,1.57,2.06.51.7,1,1.41,1.47,2.14.47.73.92,1.46,1.36,2.21.43.75.85,1.5,1.25,2.27.4.77.77,1.55,1.13,2.34.36.79.69,1.58,1.01,2.39.32.8.61,1.62.89,2.44.28.82.53,1.64.76,2.48.23.83.45,1.67.64,2.51.19.84.36,1.69.51,2.54.15.85.28,1.71.38,2.57.11.89.2,1.79.27,2.68.07.9.11,1.79.14,2.69.02.9.03,1.8,0,2.7-.02.9-.07,1.8-.13,2.7s-.15,1.79-.26,2.68c-.11.89-.24,1.78-.4,2.67-.15.89-.33,1.77-.53,2.64-.2.88-.42,1.75-.66,2.62-.24.87-.5,1.73-.79,2.58-.28.85-.59,1.7-.92,2.54-.33.84-.68,1.67-1.04,2.49-.37.82-.75,1.63-1.16,2.43-.41.8-.84,1.59-1.29,2.37-.45.78-.91,1.55-1.4,2.31-.49.76-.99,1.5-1.51,2.23-.52.73-1.07,1.45-1.62,2.16-10.07,12.52-23.25,17.4-38.73,18.94-11.31-.23-21.58-1.97-31.37-8.08-.76-.47-1.51-.96-2.24-1.47-.74-.51-1.46-1.04-2.16-1.58-.71-.55-1.4-1.11-2.08-1.69-.68-.58-1.34-1.18-1.99-1.8-.65-.62-1.28-1.25-1.89-1.9-.61-.65-1.21-1.31-1.79-1.99-.58-.68-1.14-1.37-1.68-2.08-.54-.71-1.07-1.43-1.58-2.17-.51-.74-.99-1.48-1.46-2.25-.47-.76-.91-1.54-1.34-2.32-.43-.78-.84-1.58-1.22-2.39-.39-.81-.75-1.62-1.09-2.44-.34-.83-.67-1.66-.97-2.5-.3-.84-.58-1.69-.84-2.55-.26-.86-.49-1.72-.7-2.59-.21-.87-.4-1.74-.57-2.62-.17-.89-.32-1.79-.44-2.68-.13-.9-.23-1.8-.31-2.7-.08-.9-.14-1.81-.17-2.72-.03-.91-.04-1.81-.03-2.72.01-.91.05-1.81.11-2.72.06-.91.14-1.81.24-2.71.11-.9.23-1.8.39-2.7.15-.89.32-1.78.52-2.67.2-.89.42-1.77.66-2.64.24-.88.51-1.74.79-2.61.28-.86.59-1.71.92-2.56.33-.85.68-1.68,1.05-2.51.37-.83.76-1.65,1.18-2.46.41-.81.85-1.6,1.3-2.39.45-.79.93-1.56,1.42-2.32.49-.76,1-1.51,1.54-2.25,9.95-13.52,23.94-19.37,40.06-21.6Z"/>
  <path class="cls-6" d="M0,696.48l69.31-.08c8.7,47.84,21.02,95.16,30.53,142.88,13.2-47.07,22.76-95.36,34.95-142.74,23.8.34,47.65.06,71.46.05,3.13,17.14,7.64,34.19,11.59,51.16l20.22,87.21c10.64-45.56,18.07-92.42,27.13-138.35l68.03.11-10.56,45.94-38.75,172.84-84.95-.15c-11.63-37.61-19.85-77.26-28.77-115.64-9.31,38.56-18.13,77.31-28.12,115.7l-85.69.21L0,696.48Z"/>
  <path class="cls-2" d="M542.05,160.63c2.26,3.36,1.39,132.03,2.18,149.7,61.58-36.09,124.17-70.62,185.28-107.48-1.63,42.23.04,85.04.38,127.32-10.99,7.39-23.04,13.55-34.5,20.24-22.02,12.81-43.92,25.82-65.7,39.02-37.26,22.58-75.3,44.04-113.15,65.61-25.62,14.61-51.01,29.78-77.09,43.54l.33-279.69c34.7-17.78,68.34-38.93,102.26-58.26Z"/>
  <path class="cls-1" d="M1470.77,5.99c-.13,13.72-.18,27.45-.15,41.17-3.81,3.29-6.47,6.25-9.16,10.49l-.86,1.34-.18,285.96-.18,104.97c-.07,18.47-.7,37.11-.12,55.56.14,4.41-.22,11.8,2.64,15.38,6.61,8.26,30,7.33,39.74,7.18,24.92-.37,220.13-3.49,231.39.89-31.06,16.18-61.86,33.9-93.38,49.07-2.67-1.62-4.57-2.48-7.71-2.68-12.04-.78-24.45-.2-36.52-.19l-69.22.06c-14.35,0-49.54-2.1-61.89.56-10.21,2.2-23.83,10.89-33.83,15.16-21.04,8.99-42.9,16.69-63.69,26.12-2.32,1.05-3.46,1.98-4.95,4.03l-8.43-2.77c-.84-69.74-.07-139.55-.18-209.3l-.6-344.04,117.3-58.96Z"/>
  <path class="cls-6" d="M1470.77,5.99c2.52-.04,4.48.19,6.88.97,58.66,19.16,116.74,40.82,175.06,61.05,22.18,7.69,44.39,15.26,66.64,22.72,12.4,4.18,25.26,7.95,37.36,12.9,4.46,1.83,8.29,4.4,11.81,7.7,14.14,13.29,18.28,32.75,18.47,51.41.75,71.55.1,143.2,0,214.76,0,23.49-.17,46.98-.5,70.47-.14,10.08.76,21.34-.82,31.24-1.53,9.57-5.92,19.83-12.63,26.82-2.27,2.36-5.29,5.36-8.28,6.79-9.1,6.77-20.63,11.29-30.88,16.1-11.26-4.37-206.47-1.25-231.39-.89-9.74.14-33.12,1.08-39.74-7.18-2.86-3.58-2.5-10.97-2.64-15.38-.59-18.45.05-37.09.12-55.56l.18-104.97.18-285.96.86-1.34c2.69-4.24,5.35-7.21,9.16-10.49-.03-13.72.02-27.45.15-41.17Z"/>
  <path class="cls-3" d="M1598.3,281.84c.94,17.44.4,35.08.39,52.56l.02,88.55-23.17.11c-.7-41.4.15-82.89-.14-124.3,7.49-5.91,14.97-11.61,22.91-16.91Z"/>
  <path class="cls-5" d="M1470.62,47.16l.35,305.9.02,91.95c0,16.51-1.07,34.02.63,50.44.52,5.02,2.15,10.48,6,14.01,4.41,4.05,15.1,5.23,20.96,5.71,16.92,1.39,34.32.66,51.3.64l85.82-.13,70.2.04c15.14.04,30.75.74,45.82-.82,2.38-.24,4.7-.64,7.05-1.06l5.99-1.02c-9.1,6.77-20.63,11.29-30.88,16.1-11.26-4.37-206.47-1.25-231.39-.89-9.74.14-33.12,1.08-39.74-7.18-2.86-3.58-2.5-10.97-2.64-15.38-.59-18.45.05-37.09.12-55.56l.18-104.97.18-285.96.86-1.34c2.69-4.24,5.35-7.21,9.16-10.49Z"/>
  <path class="cls-5" d="M1575.17,163.37c0-6.88-1.43-18.88,2.78-24.7,8.2-.88,96.85,27.54,104.2,33.03,4.67,3.49,7.89,10.24,8.45,15.98,1.14,11.58.37,23.81.37,35.47l-.03,66.03-.06,66.36c-.01,12.68.72,25.83-.56,38.44-.62,6.11-1.7,10.94-5.69,15.78-5.75,6.98-14.27,10.07-22.75,12.24-.72-17.19,0-34.69.06-51.9l.22-100.61c.02-18.33,1.35-37.83-.47-56.04-.51-5.14-1.38-9.46-3.72-14.07-8.32-3.27-48.99,7.41-60.28,9.69.03,24.24-.27,48.54.59,72.77-7.94,5.3-15.43,11-22.91,16.91-1.39-31.15-.2-62.87-.24-94.08l.02-41.3Z"/>
  <path class="cls-1" d="M1575.17,163.37c10.23,1.12,18.54,5.42,24.97,13.47.22.28.43.57.64.86.24,6.83,1.92,16.61-3.12,22.13-4.71,5.16-15.96,4.52-22.51,4.84l.02-41.3Z"/>
  <path class="cls-1" d="M1597.7,209.07c11.29-2.28,51.96-12.97,60.28-9.69,2.34,4.61,3.2,8.93,3.72,14.07,1.82,18.21.49,37.71.47,56.04l-.22,100.61c-.05,17.21-.77,34.72-.06,51.9-20.99,1.28-42.16.87-63.19.94l-.02-88.55c.01-17.48.56-35.11-.39-52.56-.87-24.23-.57-48.52-.59-72.77Z"/>
  <path class="cls-4" d="M1007.48.03c3.94-.22,7.02.77,10.71,1.98,54.97,17.94,109.39,38.5,164.01,57.55,32.2,11.23,68.62,21.48,99.65,34.05,7.58,3.07,14.23,7.45,20.32,12.88,12.33,11,20.31,23.84,21.13,40.76,1.31,26.95-.2,54.6-.32,81.62-.06,14.04,2.03,29.99-.36,43.74-1.3,7.45-4.22,14.22-9.33,19.85-5.37,5.92-11.83,9.22-19.05,12.3,12.48,6.44,23.44,14.66,27.62,28.8,4.06,13.73,1.3,45.04,1.23,60.65l-.15,93.87c-5.33,7.2-12.72,12.47-19.84,17.79-17.38,14.19-40.83,23.76-60.78,34.07l-112.15,57.81-83.91,44.97c-11.75,6.2-23.71,13.61-35.97,18.57-42.04-16.88-82.98-36.58-125.11-53.32-2.43-14.75-.52-32.81-.52-47.92l-.13-104.61-.13-387.53c29.01-17.99,60.07-33.63,89.93-50.22,10.94-6.09,21.99-11.97,33.15-17.64Z"/>
  <path class="cls-3" d="M1115.56,234.63c0-33.05-1.95-72.46.48-104.91.34,14.06.46,28.12.36,42.19,20.23,4.99,46.27,9.66,64.42,20.08.25,20.48.27,40.97.06,61.45-21.88-5.89-43.65-12.16-65.32-18.81Z"/>
  <path class="cls-6" d="M1116.04,129.72c20.88,6.82,41.8,13.53,62.74,20.13,12.09,3.71,25.72,6.22,37.07,11.64,4.36,2.08,8.73,4.7,10.9,9.18,6.34,13.1,4.21,65.54,3.27,81.91-3.36,4.75-5.86,8.22-11.86,9.27-11.28,1.98-26.53-4.96-37.29-8.41.21-20.48.19-40.97-.06-61.45-18.15-10.42-44.2-15.09-64.42-20.08.1-14.06-.02-28.13-.36-42.19Z"/>
  <path class="cls-6" d="M1116.13,323.9l65.6,19.05c11.62,3.38,24.75,6.03,35.61,11.3,3.96,1.92,9.54,5.33,11.43,9.54,5.27,11.69,2.23,63.73,2.34,79.73-12.54-3.17-25.3-6.05-37.69-9.76-26.07-6.34-51.96-13.32-77.68-20.95-.1-28.4-2.19-60.94.38-88.9Z"/>
  <path class="cls-3" d="M1116.13,323.9c.6,14.66.41,29.35.41,44.02,26.49,5.23,51.37,14.07,77.41,20.48-.16,15.12-.2,30.24-.53,45.35-26.07-6.34-51.96-13.32-77.68-20.95-.1-28.4-2.19-60.94.38-88.9Z"/>
  <path class="cls-6" d="M1007.48.03c2.12,53.53.27,109.04.34,162.76l.54,355.02c55.95-.77,111.9-2.78,167.84-3.12,28.35-.17,56.81,1.79,85.12,1.18,14.34-.31,31.6-10.41,41.77-9.99-17.38,14.19-40.83,23.76-60.78,34.07l-112.15,57.81-83.91,44.97c-11.75,6.2-23.71,13.61-35.97,18.57-42.04-16.88-82.98-36.58-125.11-53.32,8.6-5.92,19.19-10.19,28.59-14.79,20.65-10.09,41.79-19.64,61.73-31.08l-1.17-544.42c10.94-6.09,21.99-11.97,33.15-17.64Z"/>
  <path class="cls-1" d="M1192.81,539.41c6.97-.32,14.01-.13,20.99-.14-18.69,11.24-38.16,21.01-57.31,31.43-12.77,6.95-25.1,14.79-38.19,21.12-30.61-4.12-61.07-15.01-91.26-21.87-13.53-4.32-27.73-7.21-41.41-11.2,9.98-4.33,19.58-8.3,30.34-10.19,27.32-4.79,57.6-3.6,85.41-4.67,30.52-1.18,60.85-3.79,91.42-4.47Z"/>
  <path class="cls-1" d="M884.4,67.89c29.01-17.99,60.07-33.63,89.93-50.22l1.17,544.42c-19.94,11.43-41.08,20.99-61.73,31.08-9.4,4.59-19.99,8.87-28.59,14.79-2.43-14.75-.52-32.81-.52-47.92l-.13-104.61-.13-387.53Z"/>
</svg>