<?xml version="1.0" encoding="utf-8"?>
<!-- Generator: Adobe Illustrator 28.2.0, SVG Export Plug-In . SVG Version: 6.00 Build 0)  -->
<svg version="1.1" id="Layer_1" xmlns="http://www.w3.org/2000/svg" xmlns:xlink="http://www.w3.org/1999/xlink" x="0px" y="0px"
	 viewBox="0 0 32 32" style="enable-background:new 0 0 32 32;" xml:space="preserve">
<style type="text/css">
	.st0{fill:#50CA53;}
	.st1{fill:#F98122;}
	.st2{fill:#D3712F;}
	.st3{fill:#E44820;}
	.st4{fill:#073642;}
	.st5{fill:#CC3C1F;}
	.st6{fill:#F44D22;}
</style>
<path class="st0" d="M22.89,3.32c0.39,0.12,0.9,0.41,1.37,0.57c-0.18,0.08-0.35,0.16-0.52,0.24l-0.85,0.41
	C22.89,4.13,22.9,3.72,22.89,3.32z"/>
<path class="st1" d="M1.4,4.76l0.02-0.05c0.14-0.11,3.1-1.52,3.34-1.59c0.01,0,0.02-0.01,0.03-0.01L4.8,3.1
	C4.85,3.19,4.83,3.3,4.83,3.4c-0.1,0.08-2.65,1.21-2.92,1.31C1.8,4.75,1.68,4.78,1.57,4.78C1.51,4.78,1.46,4.77,1.4,4.76z"/>
<path class="st1" d="M13.16,2.56l0,0.29c-0.8,0.28-3.13,1.63-3.71,1.69C9.43,4.47,9.42,4.4,9.41,4.33c0.22-0.15,0.88-0.41,1.18-0.55
	C11.45,3.38,12.29,2.94,13.16,2.56z"/>
<path class="st1" d="M17.49,4.07c1.02-0.47,2.03-0.95,3.04-1.43c0.52-0.25,1.12-0.6,1.67-0.77c0.04,0.06,0.02,0.14,0.02,0.2
	l-3.61,1.76C18.25,4,17.87,4.26,17.49,4.38L17.49,4.07z"/>
<path class="st1" d="M13.79,2.99c0.85,0.3,1.69,0.67,2.53,0.99c-0.29,0.16-0.6,0.3-0.91,0.44c-0.55,0.26-1.09,0.54-1.63,0.8
	C13.8,4.48,13.8,3.74,13.79,2.99z"/>
<path class="st0" d="M5.44,3.33c0.33,0.09,0.66,0.2,0.98,0.3l2.02,0.59c-0.36,0.19-0.73,0.36-1.1,0.53C6.7,5.05,6.08,5.38,5.43,5.68
	C5.44,4.89,5.45,4.11,5.44,3.33z"/>
<path class="st1" d="M15.36,0.73c0.37-0.03,0.71,0,1.04,0.17c0.02,0.01,0.04,0.02,0.06,0.03c0.02,0.01,0.04,0.02,0.06,0.04
	c0.02,0.01,0.04,0.03,0.06,0.04c0.02,0.01,0.04,0.03,0.06,0.04c0.02,0.01,0.04,0.03,0.05,0.04c0.02,0.01,0.03,0.03,0.05,0.05
	c0.02,0.02,0.03,0.03,0.05,0.05c0.02,0.02,0.03,0.03,0.04,0.05c0.01,0.02,0.03,0.03,0.04,0.05c0.01,0.02,0.03,0.04,0.04,0.05
	c0.01,0.02,0.02,0.04,0.04,0.05c0.01,0.02,0.02,0.04,0.03,0.06S17,1.49,17,1.51c0.01,0.02,0.02,0.04,0.03,0.06
	c0.01,0.02,0.02,0.04,0.02,0.06c0.01,0.02,0.01,0.04,0.02,0.06c0.09,0.33,0.01,0.7-0.22,0.99c-0.23,0.28-0.56,0.43-0.95,0.49
	c-0.32,0.01-0.61-0.01-0.91-0.12c-0.02-0.01-0.04-0.02-0.07-0.03C14.91,3.01,14.88,3,14.86,2.99c-0.02-0.01-0.04-0.02-0.06-0.03
	c-0.02-0.01-0.04-0.02-0.06-0.04c-0.02-0.01-0.04-0.02-0.06-0.04c-0.02-0.01-0.04-0.03-0.06-0.04c-0.02-0.01-0.04-0.03-0.05-0.04
	c-0.02-0.01-0.03-0.03-0.05-0.04c-0.02-0.02-0.03-0.03-0.05-0.05c-0.02-0.02-0.03-0.03-0.05-0.05c-0.01-0.02-0.03-0.03-0.04-0.05
	c-0.01-0.02-0.03-0.03-0.04-0.05c-0.01-0.02-0.02-0.04-0.04-0.05c-0.01-0.02-0.02-0.04-0.03-0.06c-0.01-0.02-0.02-0.04-0.03-0.06
	c-0.01-0.02-0.02-0.04-0.03-0.06c-0.13-0.3-0.12-0.66,0.06-0.95C14.51,1.01,14.9,0.85,15.36,0.73z"/>
<path class="st1" d="M7.32,0.84c0.31-0.02,0.65,0.06,0.9,0.2c0.02,0.01,0.04,0.02,0.06,0.04C8.31,1.09,8.33,1.1,8.35,1.12
	c0.02,0.01,0.04,0.03,0.06,0.04C8.43,1.17,8.45,1.19,8.46,1.2C8.48,1.22,8.5,1.24,8.52,1.25C8.54,1.27,8.55,1.29,8.57,1.3
	C8.59,1.32,8.6,1.34,8.62,1.35c0.02,0.02,0.03,0.04,0.04,0.05C8.68,1.43,8.69,1.44,8.7,1.46C8.72,1.48,8.73,1.5,8.74,1.52
	c0.01,0.02,0.02,0.04,0.03,0.06C8.79,1.6,8.8,1.62,8.81,1.64C8.82,1.66,8.83,1.68,8.84,1.7c0.01,0.02,0.02,0.04,0.02,0.06
	C8.87,1.78,8.87,1.8,8.88,1.82C8.89,1.85,8.89,1.87,8.9,1.89c0.07,0.33-0.02,0.68-0.25,0.95C8.39,3.15,8,3.31,7.57,3.38
	c-0.37,0-0.71-0.06-1.02-0.24C6.52,3.12,6.5,3.11,6.48,3.1C6.46,3.08,6.44,3.07,6.42,3.05C6.4,3.04,6.38,3.03,6.37,3.01
	C6.35,3,6.33,2.98,6.31,2.97C6.29,2.95,6.28,2.93,6.26,2.92C6.24,2.9,6.23,2.88,6.21,2.87C6.2,2.85,6.18,2.83,6.17,2.82
	C6.15,2.8,6.14,2.78,6.13,2.76C6.11,2.74,6.1,2.73,6.09,2.71C6.07,2.69,6.06,2.67,6.05,2.65C6.04,2.63,6.03,2.61,6.02,2.59
	C6.01,2.57,6,2.55,5.99,2.53C5.98,2.51,5.97,2.49,5.97,2.47C5.96,2.45,5.95,2.43,5.94,2.41C5.94,2.39,5.93,2.37,5.93,2.35
	C5.92,2.33,5.92,2.31,5.91,2.28c0-0.02-0.01-0.04-0.01-0.06C5.9,2.2,5.9,2.18,5.9,2.16c0-0.02,0-0.04,0-0.06c0-0.02,0-0.04,0-0.06
	c0-0.02,0-0.04,0-0.06c0-0.02,0-0.04,0.01-0.06c0-0.02,0.01-0.04,0.01-0.06c0-0.02,0.01-0.04,0.02-0.06
	c0.01-0.02,0.01-0.04,0.02-0.06C5.96,1.72,5.97,1.7,5.97,1.68C5.98,1.66,5.99,1.64,6,1.62C6.01,1.6,6.02,1.58,6.03,1.56
	c0.01-0.02,0.02-0.04,0.03-0.06C6.07,1.49,6.09,1.47,6.1,1.45C6.11,1.44,6.12,1.42,6.14,1.4c0.01-0.02,0.03-0.03,0.04-0.05
	C6.46,1.04,6.87,0.89,7.32,0.84z"/>
<path class="st0" d="M24.16,0.73c0.34-0.02,0.66,0.04,0.95,0.19c0.35,0.18,0.61,0.45,0.71,0.79c0.1,0.34,0.03,0.73-0.21,1.02
	c-0.26,0.31-0.63,0.47-1.07,0.55c-0.37,0.02-0.68-0.01-1.01-0.18c-0.36-0.18-0.63-0.48-0.71-0.82c-0.08-0.32-0.02-0.68,0.2-0.95
	C23.29,0.98,23.7,0.81,24.16,0.73z"/>
<path class="st1" d="M4.83,13.79c0.57-0.26,1.13-0.55,1.7-0.83l4.6-2.22c0.67-0.32,1.33-0.67,2-0.98c0.04,0.08,0.03,0.15,0.03,0.23
	c-0.49,0.22-0.95,0.49-1.43,0.72L9.4,11.83c-0.91,0.45-1.81,0.9-2.74,1.33c-0.59,0.27-1.18,0.63-1.83,0.81l0,1.56
	c0,0.29,0.02,0.59-0.01,0.88c-0.24,0.02-2.93-0.83-3.33-0.95C1.67,15.21,4.36,14.04,4.83,13.79z"/>
<path class="st1" d="M13.18,13.43c1.99-1,4.02-1.95,6.04-2.9c1-0.48,1.99-0.98,3-1.45l0.05,0.01c-0.02,0.11-0.03,0.22-0.03,0.33
	c-1.81,0.8-3.59,1.68-5.38,2.51l-2.48,1.18c-0.4,0.19-0.83,0.37-1.21,0.6c0,0.87,0.05,1.77-0.02,2.64
	c-0.23,0.02-3.31-0.86-3.55-0.99c-0.06-0.03-0.04-0.04-0.06-0.1c0.8-0.47,1.69-0.88,2.54-1.29C12.43,13.8,12.86,13.64,13.18,13.43z"
	/>
<path class="st2" d="M1.4,4.76c0.06,0.01,0.11,0.01,0.17,0.01c0.11,0,0.24-0.03,0.34-0.07c0.28-0.1,2.82-1.23,2.92-1.31l0,2.56
	C3.71,6.52,2.57,7.08,1.42,7.6l0-1.88C1.42,5.42,1.46,5.06,1.4,4.76z"/>
<path class="st0" d="M26.1,7.14l0.03,0.01c0.08,0.15,0.02,2.43,0.02,2.8c-1.07,0.49-2.12,1.02-3.17,1.53l-0.05-0.02
	c-0.02-0.3,0-0.61,0-0.91l-0.01-1.87C23.98,8.16,25.08,7.7,26.1,7.14z"/>
<path class="st1" d="M18.7,30.37c0.04-0.05,0.08-0.07,0.14-0.1c0.6-0.23,1.24-0.41,1.84-0.63c0.29-0.1,0.68-0.31,0.98-0.36
	c0.36-0.06,1.38-0.01,1.79-0.01l2,0c0.35,0,0.71-0.01,1.06,0c0.09,0,0.15,0.03,0.22,0.06l-3.35,1.48c-0.44,0.19-0.89,0.4-1.34,0.58
	L18.7,30.37z"/>
<path class="st0" d="M26.15,3.53c0.07,0.24,0.02,0.58,0.02,0.84c-0.01,0.72-0.01,1.44,0,2.16c-1.06,0.55-2.15,1.06-3.23,1.57
	c0-1.01,0.03-2.04-0.03-3.05C24,4.58,25.07,4.05,26.15,3.53z"/>
<path class="st0" d="M8.65,4.67l0.05,0C8.79,4.8,8.74,7.27,8.74,7.67C7.68,8.23,6.56,8.72,5.48,9.25L5.44,9.22L5.43,6.21
	C6.5,5.7,7.59,5.21,8.65,4.67z"/>
<path class="st2" d="M9.41,4.33c0.01,0.07,0.02,0.14,0.04,0.2c0.58-0.06,2.91-1.41,3.71-1.69c-0.01,0.9-0.01,1.79-0.01,2.69
	c-0.9,0.47-1.85,0.89-2.76,1.34C10.06,7.04,9.71,7.2,9.4,7.39l0-1.98C9.4,5.05,9.38,4.68,9.41,4.33z"/>
<path class="st0" d="M8.68,8.26l0.03,0c0.07,0.09,0.03,2.71,0.03,3.04c-0.44,0.27-0.95,0.48-1.42,0.71
	c-0.62,0.3-1.23,0.61-1.84,0.92c-0.03,0-0.01,0-0.05-0.03L5.42,9.84C6.52,9.33,7.59,8.78,8.68,8.26z"/>
<path class="st2" d="M1.41,8.19c0.09-0.08,3.03-1.5,3.4-1.67C4.87,6.83,4.83,7.2,4.83,7.52l0,2.05c-1.07,0.54-2.28,1.2-3.41,1.63
	l0-1.94C1.42,8.91,1.44,8.55,1.41,8.19z"/>
<path class="st1" d="M1.41,8.19c0.09-0.08,3.03-1.5,3.4-1.67C4.8,6.61,4.79,6.7,4.79,6.79C4.18,7.07,2.2,8.14,1.72,8.23
	C1.63,8.25,1.5,8.21,1.41,8.19z"/>
<path class="st2" d="M9.37,7.94c0.37-0.18,3.68-1.81,3.74-1.82c0.02,0,0.03,0,0.05,0.01c0.03,0.38,0.01,0.77,0.01,1.15l-0.01,1.91
	c-0.69,0.36-1.4,0.68-2.1,1.02c-0.56,0.27-1.11,0.56-1.68,0.81C9.39,9.99,9.4,8.96,9.37,7.94z"/>
<path class="st1" d="M9.37,7.94c0.37-0.18,3.68-1.81,3.74-1.82c0.02,0,0.03,0,0.05,0.01c-0.01,0.08-0.02,0.14-0.02,0.22
	C13.08,6.42,10.09,7.85,9.75,8C9.64,8.05,9.54,8.08,9.42,8.1L9.37,7.94z"/>
<path class="st2" d="M4.81,10.12c0.07,0.33,0.02,0.72,0.02,1.06c0,0.87-0.03,1.74,0.01,2.61c-0.47,0.25-3.16,1.42-3.35,1.68
	l-0.03-0.01c-0.01-0.02-0.03-0.03-0.03-0.05c-0.05-0.19,0-0.59,0-0.8c0-0.88,0.04-1.77-0.02-2.65c0-0.05,0-0.09,0.02-0.13
	c0.01-0.05,0.03-0.05,0.07-0.08c0.35-0.2,0.75-0.36,1.13-0.54C3.36,10.87,4.09,10.5,4.81,10.12z"/>
<path class="st1" d="M1.4,11.96c0-0.05,0-0.09,0.02-0.13c0.01-0.05,0.03-0.05,0.07-0.08c0.35-0.2,0.75-0.36,1.13-0.54
	c0.74-0.35,1.47-0.72,2.19-1.1c-0.01,0.1-0.02,0.2-0.02,0.3C4.14,10.72,1.97,11.94,1.4,11.96z"/>
<path class="st2" d="M17.49,4.38c0.38-0.12,0.77-0.38,1.12-0.55l3.61-1.76l0,2.73c-0.95,0.5-1.95,0.96-2.93,1.43
	c-0.58,0.28-1.19,0.63-1.8,0.84L17.49,4.38z"/>
<path class="st2" d="M22.23,9.41c0-0.11,0.01-0.22,0.03-0.33c0.06,0.94,0,1.89,0.02,2.83c-0.67,0.37-1.39,0.69-2.09,1.02l-4.72,2.27
	l-1.45,0.7c-0.3,0.14-0.61,0.28-0.89,0.45c0.06-0.87,0.01-1.77,0.02-2.64c0.37-0.23,0.81-0.4,1.21-0.6l2.48-1.18
	C18.64,11.09,20.42,10.22,22.23,9.41z"/>
<path class="st2" d="M4.83,13.97c0.64-0.18,1.23-0.54,1.83-0.81c0.93-0.43,1.82-0.88,2.74-1.33l2.33-1.11
	c0.48-0.23,0.94-0.5,1.43-0.72c0,1.14-0.05,2.3,0.02,3.43c-0.32,0.21-0.75,0.38-1.11,0.55c-0.85,0.41-1.74,0.82-2.54,1.29
	c0.01-0.33,0.01-0.66,0-0.99l-0.02-0.03c-0.32,0.09-0.65,0.28-0.95,0.42L6.9,15.44l-1.37,0.64c-0.24,0.11-0.49,0.21-0.72,0.34
	c0.03-0.29,0.01-0.59,0.01-0.88L4.83,13.97z"/>
<path class="st1" d="M9.51,14.24c0.06-0.17,0.32-0.27,0.49-0.36c0.35-0.16,0.72-0.3,1.06-0.48c0.09-0.04,0.24-0.11,0.34-0.11
	c-0.42,0.2-1.52,0.89-1.88,0.96L9.51,14.24z"/>
<path class="st0" d="M16.8,4.34c0.07,0.08,0.04,3.2,0.06,3.63c1.8-0.88,3.62-1.71,5.41-2.61c-0.05,1.02,0,2.06,0.01,3.09
	c-0.32,0.18-0.67,0.33-1.01,0.49c-0.64,0.31-1.28,0.63-1.92,0.95c-1.09,0.55-2.2,1.07-3.3,1.59c-0.75,0.35-1.49,0.72-2.25,1.06
	l0.01-6.78C14.83,5.32,15.81,4.81,16.8,4.34z"/>
<path class="st3" d="M21.83,15.56c0,0.33-0.01,0.66,0,0.99c-0.11,0.08-0.19,0.15-0.27,0.25l-0.02,0.03l-0.01,6.88l-0.01,2.53
	c0,0.44-0.02,0.89,0,1.34c0,0.11-0.01,0.28,0.08,0.37c0.19,0.2,0.87,0.18,1.15,0.17c0.72-0.01,6.38-0.08,6.7,0.02
	c-0.9,0.39-1.79,0.82-2.7,1.18c-0.08-0.04-0.13-0.06-0.22-0.06c-0.35-0.02-0.71,0-1.06,0l-2,0c-0.42,0-1.43-0.05-1.79,0.01
	c-0.3,0.05-0.69,0.26-0.98,0.36c-0.61,0.22-1.24,0.4-1.84,0.63c-0.07,0.03-0.1,0.05-0.14,0.1l-0.24-0.07
	c-0.02-1.68,0-3.36-0.01-5.04l-0.02-8.28L21.83,15.56z"/>
<path class="st1" d="M21.83,15.56c0.07,0,0.13,0,0.2,0.02c1.7,0.46,3.38,0.98,5.07,1.47c0.64,0.19,1.29,0.37,1.93,0.55
	c0.36,0.1,0.73,0.19,1.08,0.31c0.13,0.04,0.24,0.11,0.34,0.19c0.41,0.32,0.53,0.79,0.54,1.24c0.02,1.72,0,3.45,0,5.17
	c0,0.57,0,1.13-0.01,1.7c0,0.24,0.02,0.51-0.02,0.75c-0.04,0.23-0.17,0.48-0.37,0.65c-0.07,0.06-0.15,0.13-0.24,0.16
	c-0.26,0.16-0.6,0.27-0.89,0.39c-0.33-0.11-5.98-0.03-6.7-0.02c-0.28,0-0.96,0.03-1.15-0.17c-0.08-0.09-0.07-0.26-0.08-0.37
	c-0.02-0.44,0-0.89,0-1.34l0.01-2.53l0.01-6.88l0.02-0.03c0.08-0.1,0.15-0.17,0.27-0.25C21.83,16.22,21.83,15.89,21.83,15.56z"/>
<path class="st4" d="M25.52,22.2c0.03,0.42,0.01,0.84,0.01,1.27l0,2.13l-0.67,0c-0.02-1,0-2,0-2.99
	C25.08,22.47,25.29,22.33,25.52,22.2z"/>
<path class="st5" d="M21.83,16.55l0.01,7.36l0,2.21c0,0.4-0.03,0.82,0.02,1.21c0.02,0.12,0.06,0.25,0.17,0.34
	c0.13,0.1,0.44,0.13,0.61,0.14c0.49,0.03,0.99,0.02,1.49,0.02l2.49,0l2.03,0c0.44,0,0.89,0.02,1.33-0.02
	c0.07-0.01,0.14-0.02,0.2-0.03l0.17-0.02c-0.26,0.16-0.6,0.27-0.89,0.39c-0.33-0.11-5.98-0.03-6.7-0.02c-0.28,0-0.96,0.03-1.15-0.17
	c-0.08-0.09-0.07-0.26-0.08-0.37c-0.02-0.44,0-0.89,0-1.34l0.01-2.53l0.01-6.88l0.02-0.03C21.64,16.7,21.72,16.63,21.83,16.55z"/>
<path class="st5" d="M24.85,19.35c0-0.17-0.04-0.45,0.08-0.59c0.24-0.02,2.81,0.66,3.02,0.8c0.14,0.08,0.23,0.25,0.24,0.38
	c0.03,0.28,0.01,0.57,0.01,0.85l0,1.59l0,1.6c0,0.31,0.02,0.62-0.02,0.93c-0.02,0.15-0.05,0.26-0.16,0.38
	c-0.17,0.17-0.41,0.24-0.66,0.29c-0.02-0.41,0-0.84,0-1.25l0.01-2.42c0-0.44,0.04-0.91-0.01-1.35c-0.01-0.12-0.04-0.23-0.11-0.34
	c-0.24-0.08-1.42,0.18-1.75,0.23c0,0.58-0.01,1.17,0.02,1.75c-0.23,0.13-0.45,0.26-0.66,0.41c-0.04-0.75-0.01-1.51-0.01-2.26
	L24.85,19.35z"/>
<path class="st3" d="M24.85,19.35c0.3,0.03,0.54,0.13,0.72,0.32c0.01,0.01,0.01,0.01,0.02,0.02c0.01,0.16,0.06,0.4-0.09,0.53
	c-0.14,0.12-0.46,0.11-0.65,0.12L24.85,19.35z"/>
<path class="st3" d="M25.51,20.45c0.33-0.05,1.5-0.31,1.75-0.23c0.07,0.11,0.09,0.22,0.11,0.34c0.05,0.44,0.01,0.91,0.01,1.35
	l-0.01,2.42c0,0.41-0.02,0.84,0,1.25c-0.61,0.03-1.22,0.02-1.83,0.02l0-2.13c0-0.42,0.02-0.85-0.01-1.27
	C25.5,21.62,25.51,21.04,25.51,20.45z"/>
<path class="st6" d="M8.41,15.42c0.11-0.01,0.2,0.02,0.31,0.05c1.59,0.43,3.17,0.93,4.75,1.39c0.93,0.27,1.99,0.52,2.89,0.82
	c0.22,0.07,0.41,0.18,0.59,0.31c0.36,0.26,0.59,0.57,0.61,0.98c0.04,0.65-0.01,1.31-0.01,1.96c0,0.34,0.06,0.72-0.01,1.05
	c-0.04,0.18-0.12,0.34-0.27,0.48c-0.16,0.14-0.34,0.22-0.55,0.3c0.36,0.15,0.68,0.35,0.8,0.69c0.12,0.33,0.04,1.08,0.04,1.46l0,2.26
	c-0.15,0.17-0.37,0.3-0.57,0.43c-0.5,0.34-1.18,0.57-1.76,0.82l-3.25,1.39l-2.43,1.08c-0.34,0.15-0.69,0.33-1.04,0.45
	c-1.22-0.41-2.4-0.88-3.62-1.28C4.8,29.7,4.86,29.26,4.86,28.9l0-2.52l0-9.33c0.84-0.43,1.74-0.81,2.6-1.21
	C7.77,15.7,8.09,15.56,8.41,15.42z"/>
<path class="st4" d="M11.54,21.07c0-0.8-0.06-1.74,0.01-2.53c0.01,0.34,0.01,0.68,0.01,1.02c0.59,0.12,1.34,0.23,1.87,0.48
	c0.01,0.49,0.01,0.99,0,1.48C12.8,21.38,12.17,21.23,11.54,21.07z"/>
<path class="st1" d="M11.56,18.54c0.6,0.16,1.21,0.33,1.82,0.48c0.35,0.09,0.74,0.15,1.07,0.28c0.13,0.05,0.25,0.11,0.32,0.22
	c0.18,0.32,0.12,1.58,0.09,1.97c-0.1,0.11-0.17,0.2-0.34,0.22c-0.33,0.05-0.77-0.12-1.08-0.2c0.01-0.49,0.01-0.99,0-1.48
	c-0.53-0.25-1.28-0.36-1.87-0.48C11.57,19.22,11.57,18.88,11.56,18.54z"/>
<path class="st1" d="M11.56,23.22l1.9,0.46c0.34,0.08,0.72,0.15,1.03,0.27c0.11,0.05,0.28,0.13,0.33,0.23
	c0.15,0.28,0.06,1.53,0.07,1.92c-0.36-0.08-0.73-0.15-1.09-0.23c-0.75-0.15-1.5-0.32-2.25-0.5C11.55,24.67,11.48,23.89,11.56,23.22z
	"/>
<path class="st4" d="M11.56,23.22c0.02,0.35,0.01,0.71,0.01,1.06c0.77,0.13,1.49,0.34,2.24,0.49c0,0.36-0.01,0.73-0.02,1.09
	c-0.75-0.15-1.5-0.32-2.25-0.5C11.55,24.67,11.48,23.89,11.56,23.22z"/>
<path class="st1" d="M8.41,15.42c0.06,1.29,0.01,2.62,0.01,3.92l0.02,8.55c1.62-0.02,3.24-0.07,4.86-0.08
	c0.82,0,1.65,0.04,2.47,0.03c0.42-0.01,0.92-0.25,1.21-0.24c-0.5,0.34-1.18,0.57-1.76,0.82l-3.25,1.39l-2.43,1.08
	c-0.34,0.15-0.69,0.33-1.04,0.45c-1.22-0.41-2.4-0.88-3.62-1.28c0.25-0.14,0.56-0.25,0.83-0.36c0.6-0.24,1.21-0.47,1.79-0.75
	l-0.03-13.1C7.77,15.7,8.09,15.56,8.41,15.42z"/>
<path class="st3" d="M13.78,28.4c0.2-0.01,0.41,0,0.61,0c-0.54,0.27-1.11,0.51-1.66,0.76c-0.37,0.17-0.73,0.36-1.11,0.51
	c-0.89-0.1-1.77-0.36-2.64-0.53c-0.39-0.1-0.8-0.17-1.2-0.27c0.29-0.1,0.57-0.2,0.88-0.25c0.79-0.12,1.67-0.09,2.47-0.11
	C12.02,28.48,12.9,28.42,13.78,28.4z"/>
<path class="st3" d="M4.85,17.05c0.84-0.43,1.74-0.81,2.6-1.21l0.03,13.1C6.91,29.22,6.3,29.45,5.7,29.7
	c-0.27,0.11-0.58,0.21-0.83,0.36C4.8,29.7,4.86,29.26,4.86,28.9l0-2.52L4.85,17.05z"/>
</svg>
